<?xml version="1.0" standalone="no"?><!DOCTYPE svg PUBLIC "-//W3C//DTD SVG 1.1//EN" "http://www.w3.org/Graphics/SVG/1.1/DTD/svg11.dtd"><svg t="1776909675275" class="icon" viewBox="0 0 1024 1024" version="1.1" xmlns="http://www.w3.org/2000/svg" p-id="21950" xmlns:xlink="http://www.w3.org/1999/xlink" width="200" height="200"><path d="M883.2 294.4c44.8 0 76.8 32 76.8 76.8v416c0 44.8-32 76.8-76.8 76.8h-83.2v57.6c0 12.8-6.4 25.6-19.2 32-6.4 0-12.8 6.4-19.2 6.4-6.4 0-12.8 0-19.2-6.4l-134.4-96H492.8c-44.8 0-76.8-32-76.8-76.8v-51.2h236.8c51.2 0 96-44.8 96-96V294.4h134.4zM633.6 128c44.8 0 76.8 32 76.8 76.8v416c0 44.8-32 76.8-76.8 76.8H396.8l-134.4 96c-6.4 6.4-12.8 6.4-19.2 6.4-6.4 0-12.8 0-19.2-6.4-12.8-6.4-19.2-19.2-19.2-32v-70.4h-64c-44.8 0-76.8-32-76.8-76.8V204.8C64 160 96 128 140.8 128h492.8zM326.4 243.2c-6.4 0-12.8 0-19.2 6.4s-12.8 0-19.2 6.4c0 6.4-6.4 12.8-6.4 19.2 0 6.4-6.4 12.8-6.4 19.2l-76.8 192c-6.4 12.8-6.4 19.2-6.4 19.2v12.8c0 6.4 0 12.8 6.4 19.2s12.8 6.4 19.2 6.4c6.4 0 12.8 0 19.2-6.4 6.4-6.4 6.4-12.8 12.8-32l12.8-38.4H384l12.8 38.4c0 6.4 6.4 12.8 6.4 12.8 0 6.4 6.4 12.8 6.4 12.8l6.4 6.4h12.8c6.4 0 12.8 0 19.2-6.4s6.4-12.8 6.4-19.2c0-6.4 0-19.2-6.4-32l-76.8-192s0-6.4-6.4-12.8c0-6.4-6.4-12.8-6.4-19.2l-12.8-12.8c-6.4-6.4-12.8 0-19.2 0z m211.2 0c-6.4 0-12.8 0-19.2 6.4-6.4 6.4-6.4 12.8-6.4 25.6V512c0 12.8 0 19.2 6.4 25.6 6.4 6.4 12.8 6.4 19.2 6.4 6.4 0 19.2 0 19.2-6.4 6.4-6.4 12.8-12.8 12.8-25.6V275.2c0-12.8 0-19.2-6.4-25.6s-12.8-6.4-25.6-6.4z m-211.2 57.6l44.8 121.6H281.6l44.8-121.6z" fill="#21CC7C" p-id="21951"></path></svg>