<?xml version="1.0" standalone="no"?><!DOCTYPE svg PUBLIC "-//W3C//DTD SVG 1.1//EN" "http://www.w3.org/Graphics/SVG/1.1/DTD/svg11.dtd"><svg t="1776933207193" class="icon" viewBox="0 0 1024 1024" version="1.1" xmlns="http://www.w3.org/2000/svg" p-id="24309" xmlns:xlink="http://www.w3.org/1999/xlink" width="200" height="200"><path d="M38.04 518.35a475.12 487.33 0 1 0 950.24 0 475.12 487.33 0 1 0-950.24 0Z" fill="#07AA74" p-id="24310"></path><path d="M513.16 18.75C258.74 18.75 52.5 224.99 52.5 479.41c0 254.42 206.25 460.66 460.66 460.66s460.66-206.25 460.66-460.66c0.01-254.42-206.24-460.66-460.66-460.66z m0 769.72c-170.69 0-309.06-138.37-309.06-309.06s138.37-309.06 309.06-309.06 309.06 138.37 309.06 309.06c0.01 170.69-138.37 309.06-309.06 309.06z" fill="#56D8B0" p-id="24311"></path><path d="M656.21 556.84c18.12 18.12 18.12 47.5 0 65.62-9.06 9.07-20.93 13.59-32.8 13.59-11.88 0-23.75-4.53-32.81-13.59l-77.43-77.43-77.44 77.43c-9.06 9.07-20.93 13.59-32.8 13.59-11.88 0-23.75-4.53-32.81-13.59-18.11-18.11-18.11-47.49 0-65.62l77.44-77.43-77.44-77.44c-18.11-18.11-18.11-47.49 0-65.62 18.12-18.11 47.5-18.11 65.62 0l77.44 77.44 77.43-77.44c18.12-18.11 47.5-18.11 65.62 0 18.12 18.12 18.12 47.5 0 65.62l-77.43 77.44 77.41 77.43z" fill="#FFFFFF" p-id="24312"></path></svg>