<?xml version="1.0" standalone="no"?><!DOCTYPE svg PUBLIC "-//W3C//DTD SVG 1.1//EN" "http://www.w3.org/Graphics/SVG/1.1/DTD/svg11.dtd"><svg t="1776932339312" class="icon" viewBox="0 0 1024 1024" version="1.1" xmlns="http://www.w3.org/2000/svg" p-id="12708" xmlns:xlink="http://www.w3.org/1999/xlink" width="200" height="200"><path d="M545.6384 541.3376m-340.5824 0a340.5824 340.5824 0 1 0 681.1648 0 340.5824 340.5824 0 1 0-681.1648 0Z" fill="#56E5BE" p-id="12709"></path><path d="M579.8912 575.5392m-306.3808 0a306.3808 306.3808 0 1 0 612.7616 0 306.3808 306.3808 0 1 0-612.7616 0Z" fill="#50DDB8" p-id="12710"></path><path d="M614.8608 600.5248m-266.3936 0a266.3936 266.3936 0 1 0 532.7872 0 266.3936 266.3936 0 1 0-532.7872 0Z" fill="#42D3AD" p-id="12711"></path><path d="M512.7168 91.0848c-16.9472 0-30.72 13.7728-30.72 30.72s13.7728 30.72 30.72 30.72c196.9152 0 357.12 160.2048 357.12 357.12s-160.2048 357.12-357.12 357.12S155.5968 706.56 155.5968 509.6448c0-107.008 46.848-206.0288 127.3344-273.408v67.5328c0 16.9472 13.7728 30.72 30.72 30.72s30.72-13.7728 30.72-30.72V157.184c0-16.9472-13.7728-30.72-30.72-30.72h-140.288c-16.9472 0-30.72 13.7728-30.72 30.72s13.7728 30.72 30.72 30.72h71.5776C149.6576 266.9056 94.1568 383.5392 94.1568 509.6448c0 230.8096 187.7504 418.56 418.56 418.56s418.56-187.7504 418.56-418.56-187.8016-418.56-418.56-418.56z" fill="#2E3138" p-id="12712"></path><path d="M640.256 594.176H466.3296c-16.9472 0-30.72-13.7728-30.72-30.72V405.1456c0-16.9472 13.7728-30.72 30.72-30.72s30.72 13.7728 30.72 30.72v127.5904h143.2064c16.9472 0 30.72 13.7728 30.72 30.72s-13.7728 30.72-30.72 30.72z" fill="#2E3138" p-id="12713"></path></svg>