<?xml version="1.0" standalone="no"?><!DOCTYPE svg PUBLIC "-//W3C//DTD SVG 1.1//EN" "http://www.w3.org/Graphics/SVG/1.1/DTD/svg11.dtd"><svg t="1776932332438" class="icon" viewBox="0 0 1024 1024" version="1.1" xmlns="http://www.w3.org/2000/svg" p-id="12535" xmlns:xlink="http://www.w3.org/1999/xlink" width="200" height="200"><path d="M545.6384 541.3376m-340.5824 0a340.5824 340.5824 0 1 0 681.1648 0 340.5824 340.5824 0 1 0-681.1648 0Z" fill="#9FA7FF" p-id="12536"></path><path d="M579.8912 575.5392m-306.3808 0a306.3808 306.3808 0 1 0 612.7616 0 306.3808 306.3808 0 1 0-612.7616 0Z" fill="#8891FF" p-id="12537"></path><path d="M614.8608 600.5248m-266.3936 0a266.3936 266.3936 0 1 0 532.7872 0 266.3936 266.3936 0 1 0-532.7872 0Z" fill="#6E75FF" p-id="12538"></path><path d="M512.7168 91.0848a30.72 30.72 0 0 0 0 61.44 357.0688 357.0688 0 1 1-229.7856 83.712v67.5328a30.72 30.72 0 0 0 61.44 0V157.184a30.72 30.72 0 0 0-30.72-30.72h-140.288a30.72 30.72 0 1 0 0 61.44h71.68a418.6112 418.6112 0 1 0 267.776-96.8192z" fill="#2E3138" p-id="12539"></path><path d="M640.256 594.176h-174.08a30.72 30.72 0 0 1-30.72-30.72V405.1456a30.72 30.72 0 0 1 61.44 0v127.5904h143.36a30.72 30.72 0 1 1 0 61.44z" fill="#2E3138" p-id="12540"></path></svg>