<?xml version="1.0" standalone="no"?><!DOCTYPE svg PUBLIC "-//W3C//DTD SVG 1.1//EN" "http://www.w3.org/Graphics/SVG/1.1/DTD/svg11.dtd"><svg t="1776908913564" class="icon" viewBox="0 0 1024 1024" version="1.1" xmlns="http://www.w3.org/2000/svg" p-id="6111" xmlns:xlink="http://www.w3.org/1999/xlink" width="200" height="200"><path d="M38.04 518.35a475.12 487.33 0 1 0 950.24 0 475.12 487.33 0 1 0-950.24 0Z" fill="#07AA74" p-id="6112"></path><path d="M513.16 18.75C258.74 18.75 52.5 224.99 52.5 479.41s206.25 460.66 460.66 460.66 460.66-206.25 460.66-460.66S767.58 18.75 513.16 18.75z m0 769.72c-170.69 0-309.06-138.37-309.06-309.06s138.37-309.06 309.06-309.06 309.06 138.37 309.06 309.06-138.37 309.06-309.06 309.06z" fill="#56D8B0" p-id="6113"></path><path d="M613.83 412.96l-69.24-110.17a37.125 37.125 0 0 0-31.43-17.36c-12.76 0-24.64 6.56-31.43 17.36L412.5 412.96a37.095 37.095 0 0 0-1.06 37.7 37.107 37.107 0 0 0 32.48 19.17h32.43v73.32c0 20.51 16.61 37.12 37.12 37.12 20.5 0 37.12-16.61 37.12-37.12v-73.32h31.8a37.11 37.11 0 0 0 32.49-19.17 37.118 37.118 0 0 0-1.05-37.7z" fill="#FFFFFF" p-id="6114"></path><path d="M685.53 577.62v63.3c0 17.94-14.54 32.48-32.48 32.48H373.27c-17.94 0-32.48-14.54-32.48-32.48v-63.3c0-17.94 14.54-32.48 32.48-32.48 17.94 0 32.48 14.54 32.48 32.48v30.82h214.83v-30.82c0-17.94 14.54-32.48 32.48-32.48 17.93 0 32.47 14.54 32.47 32.48z" fill="#FFFFFF" p-id="6115"></path></svg>