<?xml version="1.0" standalone="no"?><!DOCTYPE svg PUBLIC "-//W3C//DTD SVG 1.1//EN" "http://www.w3.org/Graphics/SVG/1.1/DTD/svg11.dtd"><svg t="1776933297992" class="icon" viewBox="0 0 1024 1024" version="1.1" xmlns="http://www.w3.org/2000/svg" p-id="28778" xmlns:xlink="http://www.w3.org/1999/xlink" width="200" height="200"><path d="M921.6 204.8a51.2 51.2 0 0 0-51.2-51.2H153.6a51.2 51.2 0 1 0 0 102.4h716.8a51.2 51.2 0 0 0 51.2-51.2zM448 460.8H153.6a51.2 51.2 0 1 0 0 102.4H448a51.2 51.2 0 1 0 0-102.4z m422.4 307.2a51.2 51.2 0 1 1 0 102.4H153.6a51.2 51.2 0 1 1 0-102.4h716.8z m-80.256-102.4a25.6 25.6 0 0 1-44.352 0L623.872 454.4a25.6 25.6 0 0 1 22.208-38.4h243.84a25.6 25.6 0 0 1 22.208 38.4l-121.984 211.2z" p-id="28779"></path></svg>