<?xml version="1.0" standalone="no"?><!DOCTYPE svg PUBLIC "-//W3C//DTD SVG 1.1//EN" "http://www.w3.org/Graphics/SVG/1.1/DTD/svg11.dtd"><svg t="1776933291191" class="icon" viewBox="0 0 1024 1024" version="1.1" xmlns="http://www.w3.org/2000/svg" p-id="28611" xmlns:xlink="http://www.w3.org/1999/xlink" width="200" height="200"><path d="M921.6 819.2a51.2 51.2 0 0 0-51.2-51.2H153.6a51.2 51.2 0 1 0 0 102.4h716.8a51.2 51.2 0 0 0 51.2-51.2z m-768-358.4H448a51.2 51.2 0 1 1 0 102.4H153.6a51.2 51.2 0 1 1 0-102.4z m768-256a51.2 51.2 0 0 0-51.2-51.2H153.6a51.2 51.2 0 1 0 0 102.4h716.8a51.2 51.2 0 0 0 51.2-51.2z m-131.456 153.6a25.6 25.6 0 0 0-44.288 0L623.872 569.6a25.6 25.6 0 0 0 22.208 38.4h243.84a25.6 25.6 0 0 0 22.208-38.4l-121.984-211.2z" p-id="28612"></path></svg>